<svg width="208" height="148" viewBox="0 0 208 148" fill="none" xmlns="http://www.w3.org/2000/svg">
<g opacity="0.7">
<mask id="mask0_69_2" style="mask-type:luminance" maskUnits="userSpaceOnUse" x="36" y="0" width="134" height="148">
<path d="M36 0H170V147.656H36V0Z" fill="white"/>
</mask>
<g mask="url(#mask0_69_2)">
<path d="M165.637 18.8224C165.681 18.7455 165.653 18.7032 165.637 18.8224ZM169.868 21.8524C166.987 26.4666 164.358 31.2193 161.369 35.7682C158.928 39.4904 156.183 43.0472 153.274 46.4387C150.533 49.6302 147.424 52.7371 143.492 54.5405C139.677 56.2901 135.513 56.6362 131.357 56.1978C129.983 56.0517 128.608 55.7787 127.23 55.7364C126.874 55.7248 126.415 55.6941 126.091 55.871C125.819 56.0209 125.62 56.3324 125.428 56.5746C125.256 56.8169 125.088 57.0553 124.916 57.2937C123.614 59.1279 122.303 60.9582 120.989 62.7885C118.635 66.0608 116.274 69.3292 113.904 72.5899C112.43 74.6202 110.947 76.6466 109.465 78.6692C109.849 79.096 110.232 79.5228 110.616 79.9497C110.74 80.0881 110.784 80.2804 110.684 80.4419C110.672 80.4572 110.664 80.4726 110.656 80.4842C110.468 80.8033 110.26 81.1186 110.064 81.4339C109.988 81.5531 109.913 81.6762 109.833 81.7992C110.792 82.799 111.747 83.7987 112.702 84.8023C117.029 89.3512 121.332 93.9232 125.592 98.5297C129.683 102.956 133.735 107.412 137.715 111.93C141.127 115.802 144.495 119.717 147.72 123.735C150.201 126.83 152.707 129.98 154.668 133.413C155.795 135.394 156.798 137.52 157.214 139.758C157.601 141.823 157.429 144.022 156.051 145.73C155.687 146.183 155.296 146.522 154.768 146.787C154.289 147.033 153.769 147.218 153.242 147.333C152.203 147.552 151.132 147.51 150.101 147.299C147.812 146.826 145.726 145.584 143.884 144.238C140.576 141.815 137.779 138.801 135.058 135.797C131.541 131.918 128.185 127.899 124.884 123.85C120.993 119.075 117.185 114.237 113.421 109.369C109.569 104.39 105.765 99.3757 101.993 94.3423C101.534 95.0806 101.07 95.815 100.611 96.5533C99.9432 97.6223 99.276 98.6874 98.6087 99.7563C98.0613 100.629 97.5178 101.502 96.9704 102.375C96.6028 102.963 96.2352 103.552 95.8636 104.144C95.7278 104.363 95.5919 104.578 95.4561 104.797C95.3162 105.024 94.9886 105.063 94.7928 104.878C93.8298 103.982 92.9108 103.04 92.0198 102.075C89.031 106.005 86.0182 109.923 82.9695 113.814C79.5252 118.21 76.0409 122.578 72.4728 126.88C69.5199 130.441 66.5152 133.971 63.3546 137.362C61.9441 138.877 60.5096 140.373 58.9753 141.765C56.6418 143.888 53.9926 145.957 50.9239 146.979C49.5134 147.448 47.9751 147.648 46.5087 147.31C45.0023 146.96 43.8755 146.126 43.1723 144.791C41.7338 142.054 42.6488 138.77 43.8156 136.109C45.6975 131.822 48.7063 128.03 51.6312 124.358C54.6639 120.547 57.8325 116.837 61.049 113.168C64.845 108.831 68.7168 104.551 72.6206 100.306C75.8651 96.7763 79.1376 93.2733 82.4301 89.7857C81.9306 89.1051 81.4311 88.4322 80.9237 87.7593C76.3406 81.6992 71.7855 75.6277 67.3902 69.4369C63.1268 63.423 58.9233 57.3591 54.9756 51.1452C53.0097 48.046 51.1077 44.9083 49.3097 41.7167C47.5795 38.6521 45.9573 35.5298 44.2471 32.4536C42.5489 29.389 40.8547 26.3167 39.4123 23.129C38.0298 20.0759 36.7791 16.8575 36.2637 13.5467C35.7962 10.5398 36.1438 7.45208 36.903 4.5105C37.2746 3.06855 37.7341 1.62275 38.3574 0.257696C38.4653 0.0269832 38.8569 -0.00762363 39.0207 0.176946C39.0567 0.215398 39.0926 0.257696 39.1286 0.292303C39.9637 1.18055 40.7588 2.11109 41.57 3.01471C43.2881 4.92963 45.0063 6.84838 46.7284 8.7633C49.1259 11.4357 51.5233 14.1081 53.9247 16.7806C56.7656 19.9452 59.6026 23.1098 62.4435 26.2744C65.4683 29.6466 68.493 33.015 71.5218 36.3873C74.5385 39.748 77.5553 43.1126 80.5721 46.4733C83.3251 49.5417 86.0781 52.6102 88.8352 55.6787C91.0768 58.1781 93.3224 60.6813 95.5639 63.1807C97.0943 64.8841 98.6207 66.5837 100.151 68.2871C100.619 68.8101 101.082 69.3292 101.55 69.8483C103.591 67.7527 105.633 65.6609 107.683 63.5729C110.26 60.9466 112.841 58.3281 115.435 55.7133C116.677 54.4636 117.932 53.2255 119.167 51.9681C119.762 51.3567 120.066 50.9799 119.87 50.0993C119.638 49.0726 119.215 48.0844 118.863 47.0924C118.367 45.7158 117.928 44.32 117.632 42.8857C116.869 39.202 117.117 35.3798 118.575 31.8807C120.185 28.0163 122.903 24.6748 125.672 21.5294C128.64 18.1648 131.737 14.9464 135.093 11.9394C138.542 8.84405 142.134 5.90246 145.594 2.82245C145.778 2.66095 146.01 2.68018 146.194 2.82245C147.344 3.72607 148.495 4.6297 149.646 5.53332C149.826 5.6756 149.794 5.96399 149.646 6.11011C146.521 9.23242 143.301 12.2701 140.18 15.3963C137.419 18.161 134.646 20.9911 132.265 24.0711C131.429 25.1477 129.372 27.9509 131.15 29.0583C132.061 29.6236 133.439 28.4969 134.111 27.9778C134.798 27.4472 135.421 26.8435 136.028 26.2321C141.77 20.4566 147.125 14.3273 152.599 8.3211C152.762 8.14422 153.03 8.19036 153.198 8.3211C153.949 8.91326 154.704 9.50543 155.456 10.0976C155.651 10.2476 155.587 10.5129 155.456 10.6705C152.299 14.5004 149.186 18.3686 146.146 22.2869C143.896 25.1862 141.758 28.1547 139.569 31.0963C139.037 31.8153 137.683 33.3611 138.07 34.3339C138.242 34.7685 138.913 35.1953 139.369 35.276C139.872 35.3683 140.26 35.1376 140.632 34.8261C141.299 34.2724 141.918 33.638 142.549 33.042C145.654 30.1004 148.555 26.9319 151.428 23.7788C154.325 20.595 157.158 17.3612 159.971 14.1081C160.127 13.9274 160.402 13.9812 160.57 14.1081C161.321 14.7003 162.076 15.2925 162.828 15.8846C162.96 15.9884 162.995 16.2461 162.896 16.3768C160.722 19.1531 158.568 21.9408 156.435 24.744C154.405 27.4087 152.283 29.9965 150.213 32.6344C149.366 33.7187 148.567 34.8415 147.764 35.9566C147.041 36.9679 146.269 38.0523 146.006 39.275C145.838 40.0518 145.918 41.2592 147.001 41.2861C147.628 41.3015 148.295 40.9977 148.819 40.6901C149.902 40.0595 150.705 39.0751 151.46 38.1138C153.354 35.6913 155.296 33.315 157.094 30.8233C158.884 28.3431 160.662 25.8553 162.432 23.3636C163.187 22.3061 163.938 21.2487 164.682 20.1874C164.921 19.8529 165.157 19.5145 165.393 19.1723C165.461 19.0762 165.521 18.957 165.601 18.8685C165.617 18.8531 165.625 18.8377 165.637 18.8224C165.633 18.8493 165.629 18.8877 165.629 18.9377C165.637 18.5609 166.072 18.4302 166.348 18.6493C167.499 19.553 168.649 20.4566 169.8 21.3602C169.944 21.4717 169.956 21.7101 169.868 21.8524ZM83.0094 89.1705C83.6967 88.4399 84.388 87.7093 85.0792 86.9826C85.4268 86.6134 85.7745 86.2481 86.1221 85.8828C85.8224 85.5444 85.5227 85.2061 85.2231 84.8677C82.1783 81.4224 79.2135 77.9117 76.3406 74.3357C73.6355 70.9749 71.0103 67.5566 68.4651 64.0843C66.0996 60.8582 63.8061 57.5859 61.5885 54.2675C59.5586 51.2221 57.5888 48.1421 55.6908 45.0159C53.9766 42.1936 52.3184 39.3366 50.7321 36.4411C50.6043 36.2104 50.9679 36.0066 51.0957 36.2373C51.2835 36.5757 51.4673 36.9141 51.6551 37.2486C53.2774 40.1633 54.9636 43.0433 56.7137 45.8888C58.6436 49.0265 60.6415 52.1219 62.7073 55.1788C64.9528 58.5088 67.2743 61.7887 69.6678 65.0187C72.261 68.514 74.9301 71.9555 77.6832 75.3354C80.5081 78.8153 83.421 82.2299 86.4098 85.5791C89.9859 81.8184 93.5781 78.0732 97.1862 74.3395C98.4449 73.0398 99.7075 71.744 100.97 70.4482C100.191 69.6176 99.4478 68.7486 98.6886 67.9026C96.9704 65.9877 95.2523 64.0728 93.5341 62.1579C91.1327 59.4855 88.7353 56.813 86.3379 54.1368C83.4969 50.9722 80.656 47.8076 77.815 44.6468C74.7903 41.2745 71.7655 37.9023 68.7408 34.5301C65.724 31.1693 62.7073 27.8086 59.6905 24.4479C56.9335 21.3756 54.1804 18.3071 51.4274 15.2386C49.1818 12.7392 46.9402 10.2399 44.6946 7.74047C43.1683 6.03705 41.6379 4.33362 40.1115 2.63019C39.692 2.16492 39.2724 1.69965 38.8569 1.23438C38.1297 3.03009 37.6022 4.9104 37.2626 6.80609C36.9869 8.34417 36.851 9.90917 36.911 11.4665C36.9709 13.1315 37.3185 14.7541 37.7701 16.3576C39.64 22.9752 43.3121 28.9622 46.6046 34.9838C48.2868 38.0638 49.917 41.1592 51.6991 44.1854C53.5411 47.3231 55.471 50.4108 57.4609 53.4639C61.4526 59.5931 65.6521 65.5993 69.9235 71.5517C72.1092 74.5971 74.3268 77.6272 76.5724 80.6341C78.7021 83.4911 80.8917 86.3058 83.0094 89.1705ZM98.273 98.7143C97.5658 98.0106 96.8665 97.3031 96.1673 96.5917C95.4481 97.5492 94.7288 98.5028 94.0056 99.4603C93.5141 100.106 93.0227 100.756 92.5272 101.402C93.3264 102.271 94.1495 103.117 95.0006 103.932C95.1164 103.755 95.2323 103.578 95.3442 103.398C95.7637 102.729 96.1833 102.06 96.5988 101.391C97.1582 100.498 97.7136 99.6064 98.273 98.7143ZM109.381 82.526C109.189 82.8297 108.998 83.1373 108.81 83.4411C108.23 84.3678 107.651 85.2945 107.068 86.2212C106.38 87.3248 105.693 88.4245 105.002 89.5281C104.267 90.7047 103.531 91.8814 102.796 93.058C102.684 93.2349 102.576 93.4117 102.465 93.5886C103.356 94.7806 104.251 95.9688 105.146 97.157C108.978 102.24 112.841 107.297 116.757 112.319C120.405 116.991 124.097 121.632 127.885 126.2C130.978 129.93 134.123 133.625 137.447 137.166C140.204 140.108 143.125 143.084 146.713 145.091C148.507 146.095 150.677 146.956 152.79 146.591C153.29 146.503 153.781 146.356 154.233 146.137C154.732 145.899 155.1 145.607 155.436 145.176C156.043 144.399 156.403 143.461 156.514 142.496C156.762 140.366 156.059 138.189 155.188 136.259C154.329 134.359 153.238 132.564 152.051 130.841C149.738 127.476 147.141 124.285 144.527 121.136C141.091 116.998 137.543 112.953 133.951 108.943C129.911 104.432 125.811 99.9717 121.68 95.542C117.612 91.1738 113.509 86.8403 109.381 82.526ZM108.966 79.3537C107.511 81.3378 106.049 83.3219 104.586 85.3022C101.877 88.9628 99.1561 92.6158 96.419 96.2572C97.1063 96.9609 97.8015 97.6569 98.5008 98.3528C99.1361 97.3339 99.7714 96.3187 100.407 95.3036C101.142 94.127 101.877 92.9503 102.612 91.7737C103.34 90.6086 104.071 89.4435 104.798 88.2784C105.465 87.2094 106.133 86.1405 106.8 85.0715C107.347 84.1986 107.891 83.3296 108.438 82.4567C108.806 81.8684 109.173 81.2763 109.545 80.6879C109.629 80.5495 109.713 80.4149 109.797 80.2804C109.521 79.9727 109.241 79.6613 108.966 79.3537ZM161.721 33.6841C164.21 29.7466 166.496 25.6938 168.953 21.7409C168.022 21.0064 167.087 20.272 166.152 19.5414C166.148 19.5491 166.144 19.553 166.136 19.5606C165.844 19.9875 165.545 20.4143 165.245 20.8373C164.266 22.2292 163.279 23.6135 162.292 25.0016C160.506 27.5049 158.72 30.0081 156.914 32.4959C156.099 33.6149 155.232 34.6915 154.365 35.7759C153.502 36.8564 152.659 37.9484 151.792 39.0251C151.044 39.9518 150.221 40.8554 149.154 41.4476C148.223 41.9667 146.773 42.4781 145.834 41.7167C144.915 40.9746 144.991 39.6403 145.306 38.6367C145.682 37.4409 146.433 36.3834 147.164 35.3645C148.06 34.1263 148.951 32.8881 149.906 31.6923C153.977 26.5782 157.929 21.3871 161.953 16.2422C161.409 15.8154 160.87 15.3886 160.326 14.9656C156.922 18.8993 153.482 22.8099 149.934 26.6243C148.315 28.3662 146.673 30.0888 145.003 31.7884C144.2 32.6036 143.389 33.4072 142.541 34.184C141.91 34.7569 141.307 35.499 140.528 35.8913C139.329 36.4911 137.447 35.6529 137.203 34.3339C136.987 33.1573 137.99 31.8538 138.642 30.954C143.716 23.948 149.062 17.1382 154.573 10.4475C154.029 10.0207 153.49 9.59771 152.946 9.17089C149.622 12.8238 146.333 16.5037 142.977 20.1297C141.451 21.7832 139.908 23.4212 138.346 25.0439C136.963 26.4782 135.605 28.0086 133.919 29.1275C133.211 29.5966 132.332 30.1465 131.425 30.0119C130.75 29.9081 130.203 29.4467 129.903 28.8699C129.1 27.3241 130.267 25.3977 131.17 24.1441C133.611 20.745 136.708 17.6957 139.677 14.7234C142.661 11.7395 145.734 8.83251 148.727 5.85632C147.788 5.11804 146.849 4.38361 145.914 3.64533C142.701 6.49078 139.389 9.22088 136.184 12.0702C132.836 15.0541 129.731 18.2225 126.758 21.5525C123.89 24.7748 120.981 28.2124 119.346 32.2037C117.892 35.7528 117.712 39.598 118.587 43.301C118.911 44.6776 119.366 46.0234 119.85 47.3538C120.185 48.2805 120.581 49.2149 120.745 50.1839C120.909 51.1875 120.509 51.7643 119.826 52.4795C119.454 52.8679 119.067 53.2408 118.687 53.6215C116.829 55.4826 114.979 57.3514 113.129 59.2201C110.136 62.2502 107.151 65.2917 104.179 68.3371C100.419 72.19 96.6748 76.0583 92.9468 79.9381C88.8472 84.2063 84.7715 88.4937 80.7239 92.8042C76.6603 97.1378 72.6246 101.498 68.6409 105.897C64.9928 109.923 61.3847 113.984 57.8645 118.117C55.0115 121.463 52.2025 124.85 49.5774 128.369C48.1589 130.268 46.7924 132.214 45.6536 134.282C44.1991 136.924 42.6768 140.285 43.4999 143.33C43.9274 144.918 44.9783 146.095 46.6485 146.503C48.1789 146.879 49.7811 146.56 51.2196 146.007C54.2483 144.838 56.8456 142.665 59.1431 140.481C62.1399 137.632 64.8729 134.521 67.566 131.406C70.9504 127.484 74.2309 123.481 77.4634 119.44C81.1035 114.891 84.6836 110.296 88.2278 105.678C89.3666 104.19 90.5014 102.702 91.6322 101.21C91.6362 101.206 91.6402 101.202 91.6402 101.198C94.1095 97.9529 96.5629 94.6922 99.0042 91.4238C102.213 87.1248 105.401 82.8067 108.574 78.4808C108.578 78.4731 108.582 78.4693 108.586 78.4616C108.698 78.3116 108.806 78.1655 108.914 78.0155C111.663 74.2626 114.4 70.502 117.121 66.7337C118.975 64.1689 120.821 61.6003 122.659 59.024C123.342 58.0704 124.021 57.1168 124.701 56.1594C124.713 56.1401 124.729 56.1247 124.745 56.1094C124.753 56.0978 124.757 56.0863 124.769 56.0786C125.432 55.2903 125.911 54.9174 127.01 54.9174C128.493 54.9174 129.979 55.2404 131.449 55.3903C135.821 55.8479 140.188 55.4018 144.092 53.3293C147.92 51.299 150.908 48.0152 153.602 44.7622C156.534 41.2207 159.271 37.5524 161.721 33.6841ZM55.507 137.063C55.491 138.485 54.4401 139.785 52.9737 140.062C51.6591 140.308 50.3046 139.75 49.6053 138.639C48.9061 137.524 49.0499 136.094 49.897 135.094C50.7161 134.133 52.1666 133.748 53.3813 134.175C54.6439 134.617 55.495 135.767 55.507 137.063ZM54.6599 137.063C54.6519 135.994 53.8767 135.075 52.7739 134.855C51.8389 134.671 50.832 135.105 50.3366 135.897C49.8291 136.701 49.905 137.782 50.5243 138.489C51.1796 139.235 52.2025 139.5 53.1575 139.166C53.5451 139.031 53.9726 138.72 54.2084 138.397C54.5121 137.982 54.6559 137.551 54.6599 137.063ZM144.915 138.639C144.212 137.524 144.356 136.094 145.207 135.094C146.026 134.133 147.476 133.748 148.691 134.175C149.953 134.617 150.801 135.767 150.813 137.063C150.801 138.485 149.746 139.785 148.279 140.062C146.965 140.308 145.61 139.75 144.915 138.639ZM145.834 138.489C146.489 139.235 147.512 139.5 148.467 139.166C148.851 139.031 149.278 138.72 149.514 138.397C149.818 137.982 149.961 137.551 149.965 137.063C149.957 135.994 149.182 135.075 148.08 134.855C147.145 134.671 146.142 135.105 145.642 135.897C145.139 136.701 145.211 137.782 145.834 138.489ZM44.0553 21.9447C43.2642 20.049 42.5529 18.1225 41.9536 16.1615C41.502 14.6926 41.1145 13.2084 40.8028 11.7049C40.607 10.7436 40.4392 9.78228 40.3313 8.82482C40.2834 8.43646 40.2634 8.04809 40.2314 7.65972C40.2314 7.65588 40.2314 7.65203 40.2314 7.64434C40.2234 7.38287 39.7999 7.38287 39.8079 7.64434C39.8159 7.9635 39.8478 8.2788 39.8798 8.59411C39.9797 9.52081 40.1275 10.4398 40.3033 11.355C40.587 12.8008 40.9426 14.235 41.3622 15.6501C41.9256 17.5765 42.5969 19.4722 43.3521 21.3371C44.2071 23.4482 45.1701 25.5207 46.157 27.5779C46.2889 27.8509 46.4208 28.1239 46.5526 28.3931C46.6685 28.6315 47.0321 28.4239 46.9162 28.1893C45.9133 26.1321 44.9384 24.0557 44.0553 21.9447ZM121.156 57.186C120.653 57.8551 120.146 58.5242 119.638 59.1932C118.268 61.0043 116.893 62.8154 115.519 64.6265C113.465 67.3258 111.411 70.0252 109.353 72.7207C106.848 76.0083 104.339 79.2921 101.821 82.5759C99.0322 86.2135 96.2392 89.8472 93.4382 93.4771C90.6053 97.1531 87.7603 100.821 84.9074 104.486C82.1943 107.97 79.4732 111.446 76.7322 114.91C74.3747 117.89 72.0053 120.863 69.6078 123.816C67.7898 126.05 65.9638 128.276 64.0738 130.456C63.0389 131.656 62.008 132.929 60.7933 133.967C60.6295 134.106 60.6055 134.136 60.4297 134.232C60.194 134.363 60.4057 134.717 60.6415 134.586C61.0291 134.371 61.3527 134.025 61.6604 133.721C62.2358 133.152 62.7792 132.552 63.3186 131.952C65.0447 130.014 66.703 128.015 68.3452 126.011C70.6387 123.22 72.9003 120.401 75.1459 117.575C77.819 114.21 80.4722 110.834 83.1173 107.451C85.9743 103.798 88.8192 100.133 91.6561 96.4648C94.4891 92.7965 97.3181 89.1243 100.143 85.4445C102.76 82.0376 105.369 78.6269 107.975 75.2124C110.16 72.3477 112.342 69.483 114.524 66.6183C116.086 64.5611 117.648 62.504 119.211 60.4468C119.95 59.4701 120.689 58.4934 121.428 57.5167C121.46 57.4744 121.492 57.4321 121.524 57.3937C121.684 57.1783 121.316 56.9745 121.156 57.186ZM106.416 92.6812C106.4 92.6581 106.384 92.635 106.368 92.6119C106.209 92.4043 105.841 92.6081 106.001 92.8196C106.28 93.1887 106.556 93.5579 106.836 93.927C107.595 94.9268 108.35 95.9265 109.109 96.9263C110.244 98.4221 111.383 99.9178 112.522 101.41C113.928 103.252 115.335 105.093 116.749 106.932C118.315 108.969 119.886 111.004 121.46 113.038C123.09 115.137 124.729 117.237 126.371 119.328C127.957 121.347 129.547 123.358 131.154 125.358C132.584 127.146 134.023 128.922 135.485 130.687C136.66 132.106 137.847 133.521 139.073 134.902C139.868 135.805 140.675 136.713 141.567 137.532C141.698 137.655 141.834 137.778 141.974 137.889C142.182 138.058 142.482 137.77 142.274 137.601C141.467 136.955 140.771 136.167 140.08 135.409C138.933 134.144 137.827 132.848 136.736 131.541C135.325 129.86 133.939 128.161 132.564 126.457C130.99 124.504 129.432 122.543 127.881 120.574C126.239 118.498 124.609 116.414 122.986 114.322C121.384 112.265 119.79 110.204 118.2 108.139C116.737 106.239 115.279 104.34 113.824 102.436C112.614 100.848 111.403 99.2565 110.192 97.6684C109.333 96.5379 108.478 95.4074 107.623 94.2769C107.219 93.7463 106.82 93.2118 106.416 92.6812Z" fill="#BF2D11" fill-opacity="0.7"/>
</g>
</g>
<path d="M3.232 90V45.968H8.864V68.656C8.992 67.9947 9.49333 67.216 10.368 66.32C11.2427 65.424 12.416 64.6453 13.888 63.984C15.36 63.3013 17.056 62.96 18.976 62.96C21.4293 62.96 23.6053 63.5467 25.504 64.72C27.4027 65.872 28.896 67.4933 29.984 69.584C31.0933 71.6533 31.648 74.0853 31.648 76.88C31.648 79.6747 31.0933 82.1173 29.984 84.208C28.896 86.2773 27.4027 87.888 25.504 89.04C23.6053 90.192 21.4293 90.768 18.976 90.768C17.1627 90.768 15.52 90.4267 14.048 89.744C12.5973 89.0613 11.4133 88.2613 10.496 87.344C9.57867 86.4267 9.00267 85.6053 8.768 84.88V90H3.232ZM26.112 76.88C26.112 74.9813 25.728 73.3387 24.96 71.952C24.192 70.5653 23.168 69.488 21.888 68.72C20.6293 67.952 19.2427 67.568 17.728 67.568C16.0853 67.568 14.592 67.9627 13.248 68.752C11.904 69.52 10.8373 70.608 10.048 72.016C9.25867 73.4027 8.864 75.024 8.864 76.88C8.864 78.736 9.25867 80.368 10.048 81.776C10.8373 83.1627 11.904 84.24 13.248 85.008C14.592 85.776 16.0853 86.16 17.728 86.16C19.2427 86.16 20.6293 85.7867 21.888 85.04C23.168 84.272 24.192 83.1947 24.96 81.808C25.728 80.4213 26.112 78.7787 26.112 76.88ZM58.0425 90V84.88C57.8718 85.4133 57.3705 86.1493 56.5385 87.088C55.7278 88.0267 54.6078 88.88 53.1785 89.648C51.7705 90.3947 50.1065 90.768 48.1865 90.768C45.7545 90.768 43.5465 90.192 41.5625 89.04C39.5998 87.888 38.0318 86.2773 36.8585 84.208C35.7065 82.1173 35.1305 79.6747 35.1305 76.88C35.1305 74.0853 35.7065 71.6533 36.8585 69.584C38.0318 67.4933 39.5998 65.872 41.5625 64.72C43.5465 63.5467 45.7545 62.96 48.1865 62.96C50.0852 62.96 51.7278 63.3013 53.1145 63.984C54.5225 64.6667 55.6425 65.456 56.4745 66.352C57.3278 67.248 57.8292 68.016 57.9785 68.656V63.728H63.4825V90H58.0425ZM40.6345 76.88C40.6345 78.7787 41.0505 80.4213 41.8825 81.808C42.7145 83.1947 43.7918 84.272 45.1145 85.04C46.4585 85.7867 47.8878 86.16 49.4025 86.16C51.0238 86.16 52.4745 85.776 53.7545 85.008C55.0345 84.24 56.0478 83.1627 56.7945 81.776C57.5412 80.368 57.9145 78.736 57.9145 76.88C57.9145 75.024 57.5412 73.4027 56.7945 72.016C56.0478 70.608 55.0345 69.52 53.7545 68.752C52.4745 67.9627 51.0238 67.568 49.4025 67.568C47.8878 67.568 46.4585 67.952 45.1145 68.72C43.7918 69.488 42.7145 70.5653 41.8825 71.952C41.0505 73.3387 40.6345 74.9813 40.6345 76.88ZM76.7145 90H71.1145V45.968H76.7145V90ZM105.855 90V84.88C105.684 85.4133 105.183 86.1493 104.351 87.088C103.54 88.0267 102.42 88.88 100.991 89.648C99.583 90.3947 97.919 90.768 95.999 90.768C93.567 90.768 91.359 90.192 89.375 89.04C87.4123 87.888 85.8443 86.2773 84.671 84.208C83.519 82.1173 82.943 79.6747 82.943 76.88C82.943 74.0853 83.519 71.6533 84.671 69.584C85.8443 67.4933 87.4123 65.872 89.375 64.72C91.359 63.5467 93.567 62.96 95.999 62.96C97.8977 62.96 99.5403 63.3013 100.927 63.984C102.335 64.6667 103.455 65.456 104.287 66.352C105.14 67.248 105.642 68.016 105.791 68.656V63.728H111.295V90H105.855ZM88.447 76.88C88.447 78.7787 88.863 80.4213 89.695 81.808C90.527 83.1947 91.6043 84.272 92.927 85.04C94.271 85.7867 95.7003 86.16 97.215 86.16C98.8363 86.16 100.287 85.776 101.567 85.008C102.847 84.24 103.86 83.1627 104.607 81.776C105.354 80.368 105.727 78.736 105.727 76.88C105.727 75.024 105.354 73.4027 104.607 72.016C103.86 70.608 102.847 69.52 101.567 68.752C100.287 67.9627 98.8363 67.568 97.215 67.568C95.7003 67.568 94.271 67.952 92.927 68.72C91.6043 69.488 90.527 70.5653 89.695 71.952C88.863 73.3387 88.447 74.9813 88.447 76.88ZM133.423 62.96C135.151 62.96 136.826 63.3227 138.447 64.048C140.09 64.7733 141.434 65.9253 142.479 67.504C143.546 69.0613 144.079 71.0987 144.079 73.616V90H138.447V74.704C138.447 72.1013 137.839 70.2133 136.623 69.04C135.407 67.8453 133.839 67.248 131.919 67.248C130.66 67.248 129.444 67.6107 128.271 68.336C127.119 69.04 126.17 70.0213 125.423 71.28C124.676 72.5173 124.303 73.9253 124.303 75.504V90H118.735V63.728H124.303V68.4C124.495 67.6747 125.018 66.8853 125.871 66.032C126.724 65.1787 127.812 64.4533 129.135 63.856C130.458 63.2587 131.887 62.96 133.423 62.96ZM163.744 86.16C165.408 86.16 166.752 85.8933 167.776 85.36C168.8 84.8267 169.44 84.4427 169.696 84.208L172.416 88.208C172.203 88.4 171.691 88.7093 170.88 89.136C170.091 89.5413 169.067 89.9147 167.808 90.256C166.571 90.5973 165.163 90.768 163.584 90.768C161.173 90.768 158.933 90.2347 156.864 89.168C154.795 88.08 153.12 86.5013 151.84 84.432C150.581 82.3627 149.952 79.8347 149.952 76.848C149.952 73.84 150.581 71.312 151.84 69.264C153.12 67.1947 154.795 65.6267 156.864 64.56C158.933 63.4933 161.173 62.96 163.584 62.96C165.141 62.96 166.528 63.152 167.744 63.536C168.96 63.8987 169.963 64.304 170.752 64.752C171.541 65.2 172.064 65.5413 172.32 65.776L169.568 69.776C169.397 69.6053 169.067 69.3493 168.576 69.008C168.107 68.6453 167.467 68.3147 166.656 68.016C165.845 67.7173 164.875 67.568 163.744 67.568C162.379 67.568 161.045 67.9413 159.744 68.688C158.464 69.4133 157.408 70.4693 156.576 71.856C155.744 73.2427 155.328 74.9067 155.328 76.848C155.328 78.7893 155.744 80.464 156.576 81.872C157.408 83.2587 158.464 84.3253 159.744 85.072C161.045 85.7973 162.379 86.16 163.744 86.16ZM181.411 78C181.432 79.5787 181.773 81.0187 182.435 82.32C183.096 83.6213 184.077 84.656 185.379 85.424C186.701 86.192 188.323 86.576 190.243 86.576C191.864 86.576 193.24 86.3413 194.371 85.872C195.523 85.3813 196.461 84.8053 197.187 84.144C197.912 83.4613 198.435 82.8533 198.755 82.32L201.475 85.68C200.771 86.704 199.907 87.6 198.883 88.368C197.88 89.136 196.653 89.7227 195.203 90.128C193.752 90.5547 191.981 90.768 189.891 90.768C187.075 90.768 184.632 90.1707 182.562 88.976C180.515 87.76 178.936 86.0853 177.827 83.952C176.717 81.7973 176.163 79.3333 176.163 76.56C176.163 74 176.685 71.696 177.731 69.648C178.776 67.5787 180.291 65.9467 182.275 64.752C184.28 63.5573 186.691 62.96 189.507 62.96C192.088 62.96 194.328 63.504 196.227 64.592C198.147 65.6587 199.629 67.1733 200.675 69.136C201.741 71.0987 202.275 73.4453 202.275 76.176C202.275 76.3467 202.264 76.656 202.243 77.104C202.221 77.5307 202.2 77.8293 202.179 78H181.411ZM196.963 73.808C196.941 72.9333 196.685 71.9733 196.195 70.928C195.725 69.8827 194.957 68.9867 193.891 68.24C192.824 67.4933 191.384 67.12 189.571 67.12C187.693 67.12 186.179 67.4827 185.027 68.208C183.896 68.9333 183.064 69.8187 182.531 70.864C181.997 71.888 181.688 72.8693 181.603 73.808H196.963Z" fill="url(#paint0_linear_69_2)"/>
<path d="M61.4 116V98H63.704V108.128L68.048 103.28H70.568L65.576 108.8L71.048 116H68.528L64.256 110.288L63.704 110.888V116H61.4ZM75.0911 100.88C74.6431 100.88 74.2671 100.752 73.9631 100.496C73.6751 100.224 73.5311 99.816 73.5311 99.272C73.5311 98.712 73.6751 98.304 73.9631 98.048C74.2671 97.792 74.6431 97.664 75.0911 97.664C75.5551 97.664 75.9311 97.792 76.2191 98.048C76.5231 98.304 76.6751 98.712 76.6751 99.272C76.6751 99.816 76.5231 100.224 76.2191 100.496C75.9311 100.752 75.5551 100.88 75.0911 100.88ZM73.9391 116V103.28H76.2431V116H73.9391ZM84.3766 116.36C83.5446 116.36 82.9046 116.072 82.4566 115.496C82.0086 114.92 81.7846 114.096 81.7846 113.024V104.96H79.9606V103.28H81.7846V100.64L83.6086 100.16H84.0886V103.28H87.4486V104.96H84.0886V113.264C84.0886 114.032 84.4646 114.416 85.2166 114.416C85.7126 114.416 86.3286 114.192 87.0646 113.744L87.6886 115.184C87.2086 115.536 86.6646 115.816 86.0566 116.024C85.4646 116.248 84.9046 116.36 84.3766 116.36ZM95.6437 116.36C94.5237 116.36 93.5237 116.112 92.6437 115.616C91.7797 115.104 91.0997 114.352 90.6037 113.36C90.1077 112.352 89.8597 111.112 89.8597 109.64C89.8597 108.152 90.1077 106.912 90.6037 105.92C91.1157 104.928 91.8037 104.184 92.6677 103.688C93.5477 103.176 94.5317 102.92 95.6197 102.92C96.7077 102.92 97.6357 103.168 98.4037 103.664C99.1877 104.16 99.7557 104.976 100.108 106.112L98.1157 106.784C97.7477 105.456 96.9317 104.792 95.6677 104.792C94.6917 104.792 93.8757 105.192 93.2197 105.992C92.5797 106.776 92.2597 107.992 92.2597 109.64C92.2597 111.288 92.5877 112.512 93.2437 113.312C93.8997 114.096 94.7317 114.488 95.7397 114.488C96.4437 114.488 97.0917 114.336 97.6837 114.032C98.2757 113.712 98.7477 113.376 99.0997 113.024L100.132 114.272C99.6357 114.832 98.9957 115.32 98.2117 115.736C97.4277 116.152 96.5717 116.36 95.6437 116.36ZM103.259 116V98H105.443V105.008C105.923 104.352 106.499 103.84 107.171 103.472C107.859 103.104 108.579 102.92 109.331 102.92C110.835 102.92 111.899 103.288 112.523 104.024C113.163 104.744 113.483 105.968 113.483 107.696V116H111.179V107.456C111.179 105.68 110.387 104.792 108.803 104.792C107.475 104.792 106.395 105.352 105.563 106.472V116H103.259ZM123.208 116.36C122.072 116.36 121.056 116.112 120.16 115.616C119.28 115.104 118.584 114.352 118.072 113.36C117.576 112.352 117.328 111.112 117.328 109.64C117.328 108.152 117.576 106.912 118.072 105.92C118.584 104.928 119.272 104.184 120.136 103.688C121 103.176 121.968 102.92 123.04 102.92C124.56 102.92 125.792 103.392 126.736 104.336C127.68 105.28 128.152 106.712 128.152 108.632V110.312H119.752C119.848 111.72 120.216 112.768 120.856 113.456C121.512 114.144 122.32 114.488 123.28 114.488C124.096 114.488 124.808 114.336 125.416 114.032C126.024 113.712 126.504 113.376 126.856 113.024L127.888 114.272C127.392 114.832 126.744 115.32 125.944 115.736C125.144 116.152 124.232 116.36 123.208 116.36ZM119.776 108.632H125.872C125.872 107.4 125.624 106.456 125.128 105.8C124.648 105.128 123.96 104.792 123.064 104.792C122.2 104.792 121.464 105.112 120.856 105.752C120.264 106.376 119.904 107.336 119.776 108.632ZM132.228 116V103.28H134.172L134.292 104.816C134.788 104.32 135.372 103.88 136.044 103.496C136.716 103.112 137.468 102.92 138.3 102.92C139.804 102.92 140.868 103.288 141.492 104.024C142.132 104.744 142.452 105.968 142.452 107.696V116H140.148V107.456C140.148 105.68 139.34 104.792 137.724 104.792C137.164 104.792 136.612 104.92 136.068 105.176C135.524 105.432 135.012 105.784 134.532 106.232V116H132.228Z" fill="#BF2D11"/>
<defs>
<linearGradient id="paint0_linear_69_2" x1="104" y1="103" x2="104" y2="45" gradientUnits="userSpaceOnUse">
<stop stop-color="#BF2D11"/>
<stop offset="0.43748" stop-color="#C5523C"/>
<stop offset="1" stop-color="#F7EDAD"/>
</linearGradient>
</defs>
</svg>
