<svg width="44" height="50" viewBox="0 0 44 50" fill="none" xmlns="http://www.w3.org/2000/svg">
<path fill-rule="evenodd" clip-rule="evenodd" d="M22 50C22.8288 50 23.6237 49.6708 24.2097 49.0847C24.7958 48.4987 25.125 47.7038 25.125 46.875V10.6687L38.5375 24.0875C38.8281 24.3781 39.173 24.6085 39.5526 24.7658C39.9322 24.923 40.3391 25.0039 40.75 25.0039C41.1609 25.0039 41.5678 24.923 41.9474 24.7658C42.327 24.6085 42.672 24.3781 42.9625 24.0875C43.2531 23.797 43.4835 23.452 43.6408 23.0724C43.798 22.6928 43.8789 22.2859 43.8789 21.875C43.8789 21.4641 43.798 21.0572 43.6408 20.6776C43.4835 20.298 43.2531 19.953 42.9625 19.6625L24.2125 0.912499C23.9222 0.621479 23.5774 0.390585 23.1977 0.233045C22.8181 0.0755047 22.411 -0.00558662 22 -0.00558662C21.589 -0.00558662 21.1819 0.0755047 20.8023 0.233045C20.4226 0.390585 20.0778 0.621479 19.7875 0.912499L1.0375 19.6625C0.450709 20.2493 0.121052 21.0452 0.121052 21.875C0.121052 22.7048 0.450709 23.5007 1.0375 24.0875C1.62429 24.6743 2.42015 25.0039 3.25 25.0039C4.07985 25.0039 4.87571 24.6743 5.4625 24.0875L18.875 10.6687V46.875C18.875 47.7038 19.2042 48.4987 19.7903 49.0847C20.3763 49.6708 21.1712 50 22 50Z" fill="black"/>
</svg>
